<svg xmlns="http://www.w3.org/2000/svg" viewBox="0 0 21 21" fill="none"><path d="M7.06716 7.71703C6.69181 7.54186 6.24552 7.70415 6.07036 8.0795C5.89519 8.45485 6.05748 8.90114 6.43283 9.0763L9.97139 10.7276C10.3064 10.884 10.6935 10.884 11.0286 10.7276L14.5672 9.0763C14.9425 8.90114 15.1048 8.45485 14.9296 8.0795C14.7545 7.70415 14.3082 7.54186 13.9328 7.71703L10.5 9.31902L7.06716 7.71703Z" fill="#4A4A4A"/><path fill-rule="evenodd" clip-rule="evenodd" d="M7.25 4.64648C5.17893 4.64648 3.5 6.32542 3.5 8.39648V11.8965C3.5 13.9676 5.17893 15.6465 7.25 15.6465H13.75C15.8211 15.6465 17.5 13.9676 17.5 11.8965V8.39648C17.5 6.32542 15.8211 4.64648 13.75 4.64648H7.25ZM5 8.39648C5 7.15384 6.00736 6.14648 7.25 6.14648H13.75C14.9926 6.14648 16 7.15384 16 8.39648V11.8965C16 13.1391 14.9926 14.1465 13.75 14.1465H7.25C6.00736 14.1465 5 13.1391 5 11.8965V8.39648Z" fill="#4A4A4A"/></svg>